<?xml version="1.0" encoding="UTF-8"?>
<svg version="1.1" xmlns="http://www.w3.org/2000/svg" width="577" height="433">
<path d="M0 0 C1.09613617 -0.01029488 1.09613617 -0.01029488 2.2144165 -0.02079773 C4.62117146 -0.03904292 7.02727299 -0.03523111 9.43408203 -0.02954102 C11.11410737 -0.03410451 12.79413084 -0.03941059 14.47415161 -0.04542542 C17.99293609 -0.05435246 21.51149357 -0.05193878 25.03027344 -0.04199219 C29.52832121 -0.03051343 34.02558265 -0.05069882 38.52352715 -0.07990932 C41.99293963 -0.09830319 45.46216489 -0.09797238 48.93161392 -0.0922718 C50.58932726 -0.09211892 52.24705355 -0.09813583 53.90472031 -0.11056328 C56.22864031 -0.12552936 58.55112334 -0.11475623 60.875 -0.09765625 C62.19450653 -0.09749008 63.51401306 -0.09732391 64.87350464 -0.09715271 C69.7338737 0.56241574 73.79489245 2.24683281 77.00439453 6.15405273 C78.57235877 12.42590968 77.84705047 16.6928436 74.7421875 22.17749023 C73.56871084 24.40061178 72.66144855 26.60962547 71.77001953 28.95874023 C69.5124639 34.68678794 66.83697175 40.15918566 64.06689453 45.65405273 C63.35726562 47.08491211 63.35726562 47.08491211 62.63330078 48.54467773 C54.90526828 63.95792815 54.90526828 63.95792815 47.56689453 66.40405273 C45.2883946 66.47887998 43.00766318 66.49050119 40.72802734 66.4699707 C40.03657623 66.46529785 39.34512512 66.460625 38.63272095 66.45581055 C37.13164959 66.44531296 35.63059215 66.43265189 34.12955475 66.41808701 C31.74983988 66.39605339 29.37020484 66.38198038 26.99041748 66.37039185 C20.22413203 66.33681497 13.45797801 66.29532391 6.69189453 66.23266602 C2.55170782 66.19489672 -1.58834232 66.1719568 -5.72867584 66.15835953 C-7.30268403 66.15033199 -8.87667449 66.13676107 -10.45058441 66.11742783 C-12.65944495 66.09077837 -14.86765808 66.08304038 -17.07666016 66.0793457 C-18.33113953 66.06966766 -19.5856189 66.05998962 -20.87811279 66.05001831 C-25.11392444 66.4718541 -27.67838195 67.41401536 -31.43310547 69.40405273 C-33.10143542 71.89463101 -34.26009426 73.95353308 -35.43310547 76.65405273 C-35.75851318 77.35989502 -36.0839209 78.0657373 -36.41918945 78.79296875 C-37.09574978 80.26203847 -37.76423156 81.73485415 -38.42480469 83.21118164 C-39.40175138 85.33586328 -40.44784638 87.40592626 -41.53076172 89.47827148 C-46.2191899 98.05022727 -46.2191899 98.05022727 -46.51123047 107.49780273 C-44.05916557 111.83333777 -39.60824223 113.95029118 -35.43310547 116.40405273 C-33.26202225 117.79300659 -31.09562987 119.18931048 -28.93310547 120.59155273 C-27.74992628 121.3513133 -26.5663155 122.11040207 -25.38232422 122.86889648 C-24.44332275 123.47193604 -24.44332275 123.47193604 -23.48535156 124.0871582 C-22.02322516 125.02538207 -20.55987577 125.96170119 -19.09570312 126.89672852 C-16.63841229 128.47156414 -14.19137994 130.06140405 -11.74560547 131.65405273 C-10.57771484 132.39691528 -10.57771484 132.39691528 -9.38623047 133.15478516 C-8.65533203 133.63407471 -7.92443359 134.11336426 -7.17138672 134.60717773 C-6.52210205 135.02644531 -5.87281738 135.44571289 -5.20385742 135.87768555 C-1.72266393 138.87843306 -0.51861511 141.5769547 -0.04542542 146.15391541 C-0.02466486 147.63160863 -0.02027691 149.10958934 -0.02905273 150.58740234 C-0.02218948 151.39779465 -0.01532623 152.20818695 -0.008255 153.0431366 C0.01000369 155.71440289 0.00617685 158.38508134 0.00048828 161.05639648 C0.00505059 162.91817923 0.01035631 164.77996028 0.01637268 166.64173889 C0.025302 170.54133959 0.02288276 174.44073547 0.01293945 178.34033203 C0.00145104 183.33168997 0.02166014 188.32234032 0.05085659 193.31360531 C0.06922424 197.15784681 0.06892499 201.00191893 0.06321907 204.84619331 C0.06306592 206.6861527 0.06910514 208.52612361 0.08151054 210.36604118 C0.09642929 212.94157864 0.08573762 215.51581129 0.06860352 218.09130859 C0.08310547 219.22536133 0.08310547 219.22536133 0.09790039 220.38232422 C0.02643126 225.52630832 -1.1747616 228.45113402 -4.43310547 232.40405273 C-7.67030923 234.63412643 -9.69566282 235.37513341 -13.62060547 235.52905273 C-19.26117674 233.86462187 -23.59342976 230.68174924 -28.43310547 227.40405273 C-30.10022662 226.33416834 -31.76746567 225.26444756 -33.43896484 224.20141602 C-39.81053513 220.14694254 -46.10689979 215.98360433 -52.37158203 211.76611328 C-54.93150812 210.04723571 -57.43508186 208.40303502 -60.17919922 206.98999023 C-63.23370632 204.84071834 -64.02364754 202.85775526 -65.43310547 199.40405273 C-65.71496288 196.70667655 -65.85111162 194.24217024 -65.83374023 191.55029297 C-65.84420883 190.40522781 -65.84420883 190.40522781 -65.85488892 189.23703003 C-65.87478697 186.7287882 -65.87436519 184.22096002 -65.87451172 181.71264648 C-65.88629037 179.96198932 -65.89965579 178.21134217 -65.91453552 176.46070862 C-65.95066378 171.86118329 -65.9709063 167.2617468 -65.98608398 162.66210938 C-66.0109467 155.29700869 -66.05062071 147.93210432 -66.10798454 140.56718636 C-66.12428386 137.99855557 -66.12808824 135.43011101 -66.1309967 132.86143494 C-66.14077472 131.28375936 -66.15103828 129.70608669 -66.16186523 128.12841797 C-66.15931229 127.41711227 -66.15675934 126.70580658 -66.15412903 125.97294617 C-66.20688256 120.85118529 -66.74408547 117.09307274 -70.43310547 113.40405273 C-73.8310702 112.18834571 -77.13116293 112.2958544 -80.71118164 112.32226562 C-82.61917793 112.332062 -82.61917793 112.332062 -84.5657196 112.34205627 C-85.24319433 112.34779726 -85.92066906 112.35353825 -86.61867332 112.3594532 C-88.75118581 112.3769146 -90.88362254 112.3871665 -93.01618958 112.39537048 C-99.07849293 112.41975146 -105.14069484 112.45516805 -111.20288086 112.5 C-114.91629169 112.52695626 -118.6296432 112.5438872 -122.34313393 112.5548687 C-123.7507985 112.56103295 -125.15845225 112.57098011 -126.56606102 112.58494759 C-145.38043336 112.76987362 -145.38043336 112.76987362 -150.93310547 108.46655273 C-153.84578138 104.46162335 -154.12831075 100.18457657 -153.43310547 95.40405273 C-152.07333816 91.55846082 -150.28020253 87.97392565 -148.43310547 84.34155273 C-147.68033325 82.82887817 -147.68033325 82.82887817 -146.91235352 81.28564453 C-145.90090291 79.26193635 -144.88237634 77.24174767 -143.85644531 75.2253418 C-142.60038218 72.73562214 -141.39197096 70.23076842 -140.20263672 67.70874023 C-139.55185772 66.37724514 -138.89963799 65.04645271 -138.24560547 63.71655273 C-137.69517578 62.57831055 -137.14474609 61.44006836 -136.57763672 60.26733398 C-133.47994921 56.13144156 -129.46002031 53.92092668 -124.32792091 53.04457283 C-122.08147891 52.91159033 -119.86795533 52.90018097 -117.61791992 52.9375 C-116.77622253 52.93519379 -115.93452515 52.93288757 -115.06732178 52.93051147 C-113.25422154 52.92789669 -111.44109007 52.93425027 -109.62804604 52.94876289 C-106.75667914 52.97076322 -103.88635888 52.96689696 -101.01493835 52.95628357 C-93.88987495 52.93468398 -86.76504959 52.95201758 -79.64001465 52.9777832 C-73.60505395 52.99917956 -67.57076732 53.00115109 -61.5358181 52.97486687 C-58.70974773 52.97051802 -55.88485169 52.99514115 -53.05891418 53.020401 C-51.32597327 53.01513063 -49.59303595 53.00840843 -47.86010742 53 C-47.07713791 53.01490982 -46.2941684 53.02981964 -45.48747253 53.04518127 C-41.44028458 52.99228198 -39.66249882 52.59142999 -36.4855957 49.99641418 C-34.71979449 47.76615022 -33.40617547 45.86969763 -32.25732422 43.28686523 C-31.90831055 42.52237061 -31.55929687 41.75787598 -31.19970703 40.97021484 C-30.84360352 40.16463135 -30.4875 39.35904785 -30.12060547 38.52905273 C-29.34105399 36.82325118 -28.55845777 35.11883806 -27.77294922 33.41577148 C-27.38349121 32.57062988 -26.9940332 31.72548828 -26.59277344 30.85473633 C-24.60577564 26.65568709 -22.40538499 22.57873425 -20.17871094 18.50317383 C-17.83275405 14.20284439 -15.70829261 9.83961273 -13.73388672 5.35717773 C-10.34977224 0.27592477 -5.70835744 0.02340224 0 0 Z " fill="#0A0909" transform="translate(326.43310546875,98.595947265625)"/>
<path d="M0 0 C1.10336449 -0.005476 1.10336449 -0.005476 2.22901917 -0.01106262 C4.65023182 -0.0191409 7.07076953 -0.00558245 9.49194336 0.0090332 C11.17915344 0.00955208 12.86636413 0.0090333 14.55357361 0.00752258 C18.08496151 0.00761218 21.61612053 0.01801713 25.14746094 0.03613281 C29.6725094 0.05883696 34.19722411 0.0593596 38.72231388 0.05261517 C42.20445214 0.04927314 45.68651439 0.0559094 49.16863823 0.0657444 C50.83718912 0.06959134 52.50574848 0.07074671 54.17430305 0.06915855 C56.5056888 0.06878748 58.83664724 0.08141908 61.16796875 0.09765625 C62.20059845 0.09394012 62.20059845 0.09394012 63.25408936 0.09014893 C66.84361477 0.1300253 69.46198675 0.42182096 72.51928711 2.37231445 C69.48609906 3.88890848 66.36251747 3.45283811 63.0402832 3.39404297 C61.88404701 3.37963165 61.88404701 3.37963165 60.70445251 3.3649292 C58.15045188 3.33188439 55.59661939 3.29157303 53.04272461 3.2512207 C51.27438962 3.22692494 49.50604837 3.20308111 47.73770142 3.17967224 C43.07858152 3.1167772 38.41957221 3.04772593 33.76055908 2.97741699 C29.00831141 2.90678245 24.25598521 2.8419363 19.50366211 2.77661133 C10.1754508 2.64752915 0.84734603 2.51194692 -8.48071289 2.37231445 C-9.14071289 3.69231445 -9.80071289 5.01231445 -10.48071289 6.37231445 C-11.47071289 6.37231445 -12.46071289 6.37231445 -13.48071289 6.37231445 C-12.48071289 3.37231445 -12.48071289 3.37231445 -10.38575745 1.70808411 C-6.85064827 0.0826042 -3.81203123 -0.04245098 0 0 Z " fill="#989893" transform="translate(326.480712890625,98.627685546875)"/>
<path d="M0 0 C1.23234306 3.69702917 0.65965874 4.31441654 -1.01953125 7.7109375 C-1.46490234 8.62617187 -1.91027344 9.54140625 -2.36914062 10.484375 C-2.84544922 11.43828125 -3.32175781 12.3921875 -3.8125 13.375 C-4.7369307 15.25719731 -5.6601478 17.13999126 -6.58203125 19.0234375 C-6.99686768 19.85794434 -7.4117041 20.69245117 -7.83911133 21.55224609 C-9.0513388 24.00473605 -9.0513388 24.00473605 -9.96362305 26.68603516 C-11 29 -11 29 -14 31 C-13.40820577 26.42229755 -11.47385679 22.84030304 -9.25 18.875 C-5.86672931 12.70402988 -2.79498603 6.4634052 0 0 Z " fill="#A3A3A0" transform="translate(307,115)"/>
<path d="M0 0 C0.66 0 1.32 0 2 0 C1.57576756 1.46224799 1.13509755 2.91973412 0.6875 4.375 C0.44386719 5.18710938 0.20023437 5.99921875 -0.05078125 6.8359375 C-1 9 -1 9 -4 11 C-3.39301257 6.87248551 -1.96189209 3.6678852 0 0 Z " fill="#8C8B89" transform="translate(297,135)"/>
<path d="M0 0 C0.90105469 0.01804687 1.80210937 0.03609375 2.73046875 0.0546875 C3.41753906 0.07789062 4.10460937 0.10109375 4.8125 0.125 C4.8125 0.455 4.8125 0.785 4.8125 1.125 C1.8425 1.125 -1.1275 1.125 -4.1875 1.125 C-4.8475 2.445 -5.5075 3.765 -6.1875 5.125 C-7.1775 5.125 -8.1675 5.125 -9.1875 5.125 C-7.51320877 0.1021263 -4.80985821 -0.12493138 0 0 Z " fill="#84837E" transform="translate(322.1875,99.875)"/>
</svg>
